{"title":"Bring Me The Horizon - Drown [Music Video] 720p [Sbyky]","uid":11579479,"size":34744827,"categoryP":"video","categoryS":"music_videos","magnet":"?xt=urn:btih:c78238997354c003796d7f5d834cca6a33772308&amp;dn=Bring+Me+The+Horizon+-+Drown+%5BMusic+Video%5D+720p+%5BSbyky%5D&amp;tr=udp%3A%2F%2Ftracker.openbittorrent.com%3A80&amp;tr=udp%3A%2F%2Fopen.demonii.com%3A1337&amp;tr=udp%3A%2F%2Ftracker.coppersurfer.tk%3A6969&amp;tr=udp%3A%2F%2Fexodus.desync.com%3A6969","seeders":2,"leechers":0,"uploader":"Sbyky","files":1,"time":1417110975,"description":"General\nComplete name                            : Bring Me The Horizon - Drown [Music Video] 720p [Sbyky].mp4\nFormat                                   : MPEG-4\nFormat profile                           : Base Media\nCodec ID                                 : isom\nFile size                                : 33.1 MiB\nDuration                                 : 4mn 5s\nOverall bit rate mode                    : Variable\nOverall bit rate                         : 1 133 Kbps\nEncoded date                             : UTC 2014-11-04 04:34:20\nTagged date                              : UTC 2014-11-04 04:34:20\n\nVideo\nID                                       : 1\nFormat                                   : AVC\nFormat/Info                              : Advanced Video Codec\nFormat profile                           : &lt;a class=&quot;__cf_email__&quot; href=&quot;/cdn-cgi/l/email-protection&quot; data-cfemail=&quot;286549414668641b0619&quot;&gt;[email&amp;#160;protected]&lt;/a&gt;&lt;script cf-hash='f9e31' type=&quot;text/javascript&quot;&gt;\n/* &lt;![CDATA[ */!function(){try{var t=&quot;currentScript&quot;in document?document.currentScript:function(){for(var t=document.getElementsByTagName(&quot;script&quot;),e=t.length;e--;)if(t[e].getAttribute(&quot;cf-hash&quot;))return t[e]}();if(t&amp;&amp;t.previousSibling){var e,r,n,i,c=t.previousSibling,a=c.getAttribute(&quot;data-cfemail&quot;);if(a){for(e=&quot;&quot;,r=parseInt(a.substr(0,2),16),n=2;a.length-n;n+=2)i=parseInt(a.substr(n,2),16)^r,e+=String.fromCharCode(i);e=document.createTextNode(e),c.parentNode.replaceChild(e,c)}}}catch(u){}}();/* ]]&gt; */&lt;/script&gt;\nFormat settings, CABAC                   : Yes\nFormat settings, ReFrames                : 3 frames\nCodec ID                                 : avc1\nCodec ID/Info                            : Advanced Video Coding\nDuration                                 : 4mn 5s\nBit rate                                 : 1 004 Kbps\nWidth                                    : 1 280 pixels\nHeight                                   : 720 pixels\nDisplay aspect ratio                     : 16:9\nFrame rate mode                          : Constant\nFrame rate                               : 25.000 fps\nColor space                              : YUV\nChroma subsampling                       : 4:2:0\nBit depth                                : 8 bits\nScan type                                : Progressive\nBits/(Pixel*Frame)                       : 0.044\nStream size                              : 29.4 MiB (89%)\nEncoded date                             : UTC 2014-11-04 04:34:20\nTagged date                              : UTC 2014-11-04 04:34:20\n\nAudio\nID                                       : 2\nFormat                                   : AAC\nFormat/Info                              : Advanced Audio Codec\nFormat profile                           : LC\nCodec ID                                 : 40\nDuration                                 : 4mn 5s\nBit rate mode                            : Variable\nBit rate                                 : 126 Kbps\nChannel(s)                               : 2 channels\nChannel positions                        : Front: L R\nSampling rate                            : 44.1 KHz\nCompression mode                         : Lossy\nStream size                              : 3.67 MiB (11%)\nEncoded date                             : UTC 2014-11-04 04:33:32\nTagged date                              : UTC 2014-11-04 04:33:32\n\nShared By Sbyky","torrent":{"xt":"urn:btih:c78238997354c003796d7f5d834cca6a33772308","amp;dn":"Bring+Me+The+Horizon+-+Drown+%5BMusic+Video%5D+720p+%5BSbyky%5D","amp;tr":["udp%3A%2F%2Ftracker.openbittorrent.com%3A80","udp%3A%2F%2Fopen.demonii.com%3A1337","udp%3A%2F%2Ftracker.coppersurfer.tk%3A6969","udp%3A%2F%2Fexodus.desync.com%3A6969"],"infoHash":"c78238997354c003796d7f5d834cca6a33772308","infoHashBuffer":{"type":"Buffer","data":[199,130,56,153,115,84,192,3,121,109,127,93,131,76,202,106,51,119,35,8]},"announce":[],"urlList":[]}}